REM MD5 a141c86b1883e7e481694bebec31ac6e
FILE "Famitsu Wave 12gatsu-gou Vol. 17 (Japan).bin" BINARY
  TRACK 01 MODE2/2352
    INDEX 01 00:00:00
  TRACK 02 AUDIO
    INDEX 00 39:04:46
    INDEX 01 39:06:46
  TRACK 03 AUDIO
    INDEX 00 41:06:47
    INDEX 01 41:08:47
  TRACK 04 AUDIO
    INDEX 00 42:40:66
    INDEX 01 42:42:66
  TRACK 05 AUDIO
    INDEX 00 43:43:69
    INDEX 01 43:45:69
  TRACK 06 AUDIO
    INDEX 00 43:51:41
    INDEX 01 43:53:41
REM LEADOUT 47:01:06
